<svg width="112" height="32" viewBox="0 0 112 32" fill="none" xmlns="http://www.w3.org/2000/svg">
<g id="_Client logo" clip-path="url(#clip0_2906_95)">
<path id="Vector" d="M32.1062 22.6792C31.9305 22.2892 31.7658 21.8792 31.5901 21.5292L30.7776 19.8592L30.7446 19.8292C28.329 15.0292 25.7486 10.1492 23.0144 5.34921L22.9046 5.14921C22.6301 4.67921 22.3556 4.15921 22.0701 3.67921C21.7188 3.10921 21.3784 2.49921 20.8184 1.91921C20.2725 1.31234 19.5855 0.8234 18.807 0.487667C18.0285 0.151934 17.1778 -0.0222168 16.3164 -0.0222168C15.455 -0.0222168 14.6044 0.151934 13.8258 0.487667C13.0473 0.8234 12.3603 1.31234 11.8144 1.91921C11.2984 2.49921 10.9141 3.10921 10.5627 3.67921C10.2882 4.19921 10.0137 4.70921 9.72817 5.17921L9.61837 5.37921C6.92818 10.1792 4.30386 15.0592 1.88818 19.8592L1.82229 19.9192C1.58072 20.4392 1.29523 20.9792 1.02072 21.5592C0.845038 21.9092 0.669352 22.2892 0.493666 22.7092C0.0193486 23.809 -0.132116 25.0024 0.0541999 26.1717C0.240516 27.341 0.758181 28.446 1.55618 29.3776C2.35417 30.3093 3.40496 31.0355 4.60497 31.4847C5.80498 31.9338 7.11281 32.0905 8.39955 31.9392C9.63316 31.7913 10.821 31.4171 11.8913 30.8392C13.3188 30.1092 14.6913 29.0492 16.2286 27.5192C17.7658 29.0492 19.1713 30.1092 20.5658 30.8492C21.9069 31.5661 23.4255 31.9617 24.9799 31.9992C26.78 32.006 28.522 31.4195 29.8843 30.3479C31.2466 29.2764 32.1372 27.7921 32.3917 26.1692C32.6858 25.003 32.5863 23.7831 32.1062 22.6692V22.6792ZM16.3384 24.3392C14.4497 22.1392 13.2199 20.1192 12.8027 18.3892C12.6298 17.7481 12.5925 17.083 12.6929 16.4292C12.7697 15.9192 12.9784 15.4692 13.2639 15.0892C13.9227 14.2192 15.0756 13.6792 16.3384 13.6792C16.938 13.6625 17.5329 13.7817 18.0695 14.0261C18.6061 14.2704 19.0677 14.6323 19.4129 15.0792C19.6984 15.4792 19.907 15.9192 19.9729 16.4292C20.0827 17.0092 20.0388 17.6792 19.8631 18.3892C19.4458 20.0892 18.216 22.1292 16.3384 24.3392ZM30.3274 25.8192C30.2026 26.6432 29.843 27.423 29.2843 28.0809C28.7256 28.7389 27.9873 29.252 27.1431 29.5692C26.3086 29.8892 25.3862 29.9792 24.4858 29.8892C23.6074 29.7892 22.729 29.5292 21.8286 29.0492C20.3336 28.2077 18.9893 27.1622 17.8427 25.9492C20.1486 23.3492 21.5431 20.9792 22.0701 18.8692C22.3227 17.8692 22.3556 16.9692 22.2458 16.1392C22.1087 15.3525 21.7866 14.602 21.3015 13.9392C20.7477 13.2205 20.0084 12.6367 19.1487 12.2391C18.289 11.8415 17.3353 11.6424 16.3713 11.6592C14.3399 11.6592 12.5282 12.5192 11.4301 13.9292C10.9358 14.5904 10.6164 15.3468 10.4968 16.1392C10.3541 16.9792 10.387 17.9092 10.6725 18.8692C11.1995 20.9792 12.627 23.3792 14.8999 25.9692C13.7728 27.2054 12.4254 28.2601 10.9141 29.0892C10.0027 29.5692 9.13523 29.8192 8.2568 29.9192C6.89072 30.0786 5.51077 29.7404 4.41692 28.9783C3.32306 28.2162 2.60372 27.0917 2.41523 25.8492C2.30543 25.0492 2.38229 24.2492 2.73367 23.3492C2.84347 23.0292 3.00818 22.7092 3.18386 22.3292C3.42543 21.8092 3.71092 21.2692 3.98543 20.7292L4.02935 20.6592C6.40112 15.8892 8.99249 11.0192 11.6827 6.24921L11.7925 6.04921C12.067 5.56921 12.3415 5.05921 12.627 4.57921C12.9125 4.06921 13.2199 3.57921 13.6152 3.17921C13.9574 2.80723 14.3849 2.50808 14.8678 2.30283C15.3506 2.09757 15.8769 1.9912 16.4097 1.9912C16.9426 1.9912 17.4689 2.09757 17.9517 2.30283C18.4345 2.50808 18.8621 2.80723 19.2043 3.17921C19.5886 3.57921 19.907 4.06921 20.1925 4.57921C20.467 5.05921 20.7415 5.57921 21.027 6.04921L21.1368 6.24921C23.816 11.0192 26.4074 15.8892 28.8231 20.6592L28.856 20.6892C29.1415 21.2092 29.3831 21.7892 29.6576 22.2892C29.8333 22.6792 30.009 22.9892 30.1188 23.3192C30.3274 24.2192 30.4372 25.0192 30.3274 25.8192ZM45.6121 24.1192C44.7847 24.1302 43.9652 23.9715 43.2143 23.6547C42.4635 23.3379 41.8006 22.8712 41.2748 22.2892C40.0934 21.0492 39.4664 19.4503 39.518 17.8092C39.4999 16.1324 40.1472 14.5061 41.3407 13.2292C41.8928 12.6398 42.5801 12.1678 43.3541 11.8465C44.1281 11.5251 44.9701 11.3622 45.8207 11.3692C46.6211 11.3493 47.4139 11.515 48.1246 11.8509C48.8353 12.1868 49.4406 12.6817 49.8835 13.2892L49.9933 11.7192H53.1995V23.7992H49.9823L49.8725 22.0392C49.4159 22.6879 48.7848 23.2195 48.0391 23.5835C47.2935 23.9476 46.458 24.132 45.6121 24.1192ZM46.4466 21.2392C47.0835 21.2392 47.6435 21.0792 48.1705 20.7892C48.6537 20.4692 49.049 20.0492 49.3564 19.5392C49.6309 19.0292 49.7737 18.4192 49.7737 17.7392C49.8165 17.1486 49.6902 16.558 49.4073 16.0251C49.1244 15.4923 48.6944 15.0354 48.1595 14.6992C47.6456 14.4076 47.0522 14.253 46.4466 14.253C45.841 14.253 45.2476 14.4076 44.7337 14.6992C44.2505 15.0192 43.8552 15.4392 43.5478 15.9492C43.2574 16.5117 43.1146 17.1279 43.1305 17.7492C43.0877 18.3398 43.214 18.9304 43.4969 19.4633C43.7798 19.9962 44.2097 20.453 44.7446 20.7892C45.2607 21.0792 45.8207 21.2392 46.4466 21.2392ZM58.6897 8.45921C58.6897 8.80921 58.6239 9.12921 58.4482 9.38921C58.2725 9.63921 58.0309 9.86921 57.7125 10.0292C57.3941 10.1892 57.0537 10.2492 56.7023 10.2492C56.3509 10.2492 55.9995 10.1892 55.6811 10.0292C55.38 9.87652 55.1267 9.65621 54.9454 9.38921C54.7754 9.10434 54.692 8.78327 54.7039 8.45921C54.7039 8.09921 54.7807 7.77921 54.9454 7.52921C55.1211 7.22921 55.3737 7.04921 55.6811 6.88921C55.9995 6.72921 56.3399 6.65921 56.7023 6.65921C57.0518 6.65188 57.3974 6.72727 57.7054 6.87801C58.0133 7.02875 58.273 7.24968 58.4592 7.51921C58.6189 7.81076 58.6981 8.13345 58.6897 8.45921ZM54.9564 23.7592V11.6992H58.4482V23.7792H54.9454L54.9564 23.7592ZM67.7815 14.8592V14.8992C67.6168 14.8292 67.3972 14.7992 67.2325 14.7692C67.0129 14.7292 66.8372 14.7292 66.6286 14.7292C65.6513 14.7292 64.9156 14.9892 64.4325 15.5292C63.9054 16.0792 63.6639 16.8492 63.6639 17.8392V23.7692H60.1611V11.6892H63.3784L63.4882 13.5192C63.8395 12.8792 64.2568 12.3992 64.8497 12.0392C65.4395 11.6894 66.1339 11.5147 66.8372 11.5392C67.0897 11.5392 67.3313 11.5592 67.5399 11.5992C67.6497 11.6292 67.7156 11.6292 67.7815 11.6592V14.8592ZM69.187 23.7592V6.73921H72.6788V13.2392C73.1729 12.6592 73.7329 12.2092 74.4356 11.8592C75.5481 11.3624 76.812 11.2215 78.0233 11.4592C79.2345 11.6969 80.3225 12.2993 81.1117 13.1692C82.2957 14.4118 82.9229 16.0147 82.8686 17.6592C82.8866 19.336 82.2394 20.9624 81.0458 22.2392C80.4937 22.8286 79.8065 23.3006 79.0324 23.6219C78.2584 23.9433 77.4165 24.1062 76.5658 24.0992C75.7654 24.1192 74.9726 23.9534 74.2619 23.6175C73.5512 23.2817 72.946 22.7867 72.5031 22.1792L72.3933 23.7492L69.187 23.7792V23.7592ZM75.9399 21.2392C76.5658 21.2392 77.1258 21.0792 77.6529 20.7892C78.136 20.4692 78.5313 20.0492 78.8388 19.5392C79.1243 19.0292 79.256 18.4192 79.256 17.7392C79.256 17.0692 79.1243 16.4592 78.8388 15.9492C78.5504 15.4574 78.1453 15.0304 77.6529 14.6992C77.1389 14.4076 76.5455 14.253 75.9399 14.253C75.3344 14.253 74.741 14.4076 74.227 14.6992C73.7329 15.0192 73.3486 15.4392 73.0301 15.9492C72.7398 16.5117 72.5969 17.1279 72.6129 17.7492C72.5701 18.3398 72.6963 18.9304 72.9792 19.4633C73.2622 19.9962 73.6921 20.453 74.227 20.7892C74.7431 21.0792 75.3031 21.2392 75.9399 21.2392ZM84.1862 23.7692V11.6892H87.4035L87.5133 13.2592C87.9176 12.6574 88.4911 12.1649 89.1745 11.8326C89.8578 11.5003 90.6263 11.3403 91.4003 11.3692C92.2855 11.3553 93.1554 11.5793 93.9015 12.0133C94.6475 12.4473 95.2365 13.072 95.5948 13.8092C95.9791 14.5692 96.1878 15.5092 96.1878 16.5592V23.7992H92.685V16.9792C92.685 16.1392 92.4764 15.4792 92.0592 14.9892C91.6419 14.5092 91.0709 14.2492 90.3462 14.2492C89.8192 14.2492 89.358 14.3492 88.9517 14.5692C88.5674 14.7992 88.249 15.0892 88.0074 15.4992C87.7631 15.9137 87.642 16.379 87.656 16.8492V23.7692H84.1862ZM97.9337 23.7692V6.72921H101.436V13.2292C101.911 12.646 102.528 12.1715 103.239 11.8434C103.95 11.5153 104.735 11.3427 105.532 11.3392C106.36 11.3282 107.179 11.487 107.93 11.8038C108.681 12.1206 109.344 12.5872 109.869 13.1692C111.045 14.4117 111.668 16.0098 111.615 17.6492C111.634 19.3262 110.987 20.9528 109.792 22.2292C109.24 22.8186 108.553 23.2906 107.779 23.6119C107.005 23.9333 106.163 24.0962 105.312 24.0892C104.512 24.1092 103.719 23.9434 103.009 23.6075C102.298 23.2717 101.693 22.7767 101.25 22.1692L101.151 23.7392L97.9337 23.7692ZM104.72 21.2392C105.356 21.2392 105.916 21.0792 106.432 20.7892C106.927 20.4692 107.311 20.0492 107.629 19.5392C107.904 19.0292 108.047 18.4192 108.047 17.7392C108.089 17.1486 107.963 16.558 107.68 16.0251C107.397 15.4923 106.967 15.0354 106.432 14.6992C105.919 14.4076 105.325 14.253 104.72 14.253C104.114 14.253 103.521 14.4076 103.007 14.6992C102.523 15.0192 102.128 15.4392 101.821 15.9492C101.514 16.5066 101.371 17.1265 101.403 17.7492C101.361 18.3398 101.487 18.9304 101.77 19.4633C102.053 19.9962 102.483 20.453 103.018 20.7892C103.534 21.0792 104.061 21.2392 104.72 21.2392Z" fill="#FF385C"/>
</g>
<defs>
<clipPath id="clip0_2906_95">
<rect width="112" height="32" fill="white"/>
</clipPath>
</defs>
</svg>
