<svg width="76" height="26" viewBox="0 0 76 26" fill="none" xmlns="http://www.w3.org/2000/svg">
<g id="Text">
<g id="Vector">
<path d="M8.33069 19.1397H3.59729L2.46057 22.4962H0.455688L4.93909 10.0782H7.02209L11.5055 22.4962H9.46642L8.33069 19.1397ZM4.08752 17.5909H7.83952L5.98991 12.1436H5.93815L4.08752 17.5909Z" fill="white"/>
<path d="M21.1881 17.9698C21.1881 20.7833 19.6823 22.5909 17.4098 22.5909C16.8341 22.621 16.2616 22.4884 15.7578 22.2082C15.254 21.9281 14.8393 21.5118 14.5612 21.0069H14.5182V25.4913H12.6598V13.4424H14.4586V14.9483H14.4928C14.7838 14.4458 15.2055 14.0316 15.7131 13.7498C16.2207 13.4679 16.7953 13.329 17.3756 13.3477C19.6734 13.3477 21.1881 15.1641 21.1881 17.9698ZM19.278 17.9698C19.278 16.1368 18.3307 14.9317 16.8854 14.9317C15.4654 14.9317 14.5104 16.1622 14.5104 17.9698C14.5104 19.794 15.4654 21.0157 16.8854 21.0157C18.3307 21.0157 19.278 19.8194 19.278 17.9698Z" fill="white"/>
<path d="M31.153 17.9698C31.153 20.7833 29.6471 22.5909 27.3746 22.5909C26.799 22.621 26.2265 22.4884 25.7227 22.2082C25.2189 21.9281 24.8042 21.5118 24.526 21.0069H24.483V25.4913H22.6246V13.4424H24.4234V14.9483H24.4576C24.7486 14.4458 25.1703 14.0316 25.6779 13.7498C26.1856 13.468 26.7601 13.329 27.3404 13.3477C29.6383 13.3477 31.153 15.1641 31.153 17.9698ZM29.2428 17.9698C29.2428 16.1368 28.2955 14.9317 26.8502 14.9317C25.4303 14.9317 24.4752 16.1622 24.4752 17.9698C24.4752 19.794 25.4303 21.0157 26.8502 21.0157C28.2955 21.0157 29.2428 19.8194 29.2428 17.9698Z" fill="white"/>
<path d="M37.7389 19.0362C37.8766 20.2676 39.0729 21.0762 40.7076 21.0762C42.2741 21.0762 43.401 20.2676 43.401 19.1572C43.401 18.1934 42.7213 17.6162 41.1119 17.2207L39.5026 16.833C37.2223 16.2822 36.1637 15.2158 36.1637 13.4854C36.1637 11.3428 38.0309 9.87109 40.6823 9.87109C43.3063 9.87109 45.1051 11.3428 45.1656 13.4854H43.2896C43.1773 12.2461 42.1529 11.4981 40.6559 11.4981C39.1588 11.4981 38.1344 12.2549 38.1344 13.3565C38.1344 14.2344 38.7887 14.751 40.3893 15.1465L41.7574 15.4824C44.3053 16.0849 45.3639 17.1084 45.3639 18.9248C45.3639 21.248 43.5133 22.7031 40.5699 22.7031C37.816 22.7031 35.9566 21.2822 35.8365 19.0361L37.7389 19.0362Z" fill="white"/>
<path d="M49.3746 11.2999V13.4424H51.0963V14.9141H49.3746V19.9053C49.3746 20.6807 49.7194 21.042 50.4762 21.042C50.6806 21.0385 50.8846 21.0241 51.0875 20.999V22.4619C50.7472 22.5255 50.4014 22.5543 50.0553 22.5479C48.2223 22.5479 47.5074 21.8594 47.5074 20.1035V14.9141H46.191V13.4424H47.5074V11.2999H49.3746Z" fill="white"/>
<path d="M52.0934 17.9698C52.0934 15.1212 53.7711 13.3311 56.3874 13.3311C59.0124 13.3311 60.6823 15.1211 60.6823 17.9698C60.6823 20.8262 59.0212 22.6085 56.3874 22.6085C53.7545 22.6085 52.0934 20.8262 52.0934 17.9698ZM58.7887 17.9698C58.7887 16.0157 57.8932 14.8624 56.3874 14.8624C54.8815 14.8624 53.987 16.0245 53.987 17.9698C53.987 19.9317 54.8815 21.0762 56.3874 21.0762C57.8932 21.0762 58.7887 19.9317 58.7887 17.9698Z" fill="white"/>
<path d="M62.2145 13.4424H63.9869V14.9834H64.0299C64.1499 14.5021 64.4318 14.0768 64.8284 13.7789C65.225 13.481 65.712 13.3288 66.2077 13.3477C66.4218 13.3469 66.6354 13.3702 66.8444 13.417V15.1553C66.574 15.0727 66.292 15.0348 66.0094 15.043C65.7394 15.0321 65.4703 15.0797 65.2204 15.1825C64.9706 15.2854 64.746 15.4412 64.562 15.6391C64.378 15.8369 64.239 16.0723 64.1546 16.329C64.0702 16.5856 64.0423 16.8575 64.0729 17.126V22.4961H62.2145L62.2145 13.4424Z" fill="white"/>
<path d="M75.4127 19.837C75.1627 21.4805 73.5621 22.6084 71.5143 22.6084C68.8805 22.6084 67.2457 20.8438 67.2457 18.0127C67.2457 15.1729 68.8893 13.3311 71.4362 13.3311C73.941 13.3311 75.5162 15.0518 75.5162 17.7969V18.4336H69.1217V18.5459C69.0922 18.8791 69.1339 19.2148 69.2441 19.5307C69.3543 19.8465 69.5304 20.1353 69.7607 20.3778C69.9911 20.6204 70.2704 20.8111 70.5802 20.9374C70.8899 21.0637 71.223 21.1227 71.5573 21.1104C71.9964 21.1515 72.4371 21.0498 72.8138 20.8204C73.1906 20.591 73.4831 20.246 73.6481 19.837L75.4127 19.837ZM69.1305 17.1348H73.6569C73.6735 16.8352 73.6281 16.5354 73.5234 16.2542C73.4188 15.973 73.2571 15.7165 73.0486 15.5007C72.84 15.2849 72.5892 15.1146 72.3117 15.0004C72.0342 14.8861 71.7361 14.8305 71.4362 14.837C71.1335 14.8352 70.8335 14.8933 70.5535 15.008C70.2734 15.1228 70.0189 15.2919 69.8045 15.5055C69.5902 15.7191 69.4203 15.9731 69.3046 16.2527C69.1889 16.5324 69.1297 16.8322 69.1305 17.1348Z" fill="white"/>
</g>
<g id="Vector_2">
<path d="M3.85461 0.731011C4.24422 0.703052 4.63519 0.761912 4.9993 0.903345C5.36341 1.04478 5.6916 1.26526 5.96018 1.54888C6.22877 1.83251 6.43106 2.17221 6.55246 2.54348C6.67386 2.91475 6.71135 3.30834 6.66223 3.69585C6.66223 5.6021 5.63196 6.69785 3.85461 6.69785H1.69934V0.731011H3.85461ZM2.62609 5.85401H3.75109C4.0295 5.87065 4.30811 5.82501 4.56665 5.72039C4.82519 5.61578 5.05715 5.45483 5.24564 5.24926C5.43413 5.0437 5.57441 4.79869 5.65628 4.53207C5.73814 4.26545 5.75952 3.98393 5.71886 3.70801C5.75657 3.43318 5.73302 3.15341 5.6499 2.88874C5.56678 2.62408 5.42615 2.38108 5.23809 2.17714C5.05003 1.97321 4.81918 1.81341 4.5621 1.70917C4.30502 1.60493 4.02807 1.55885 3.75109 1.57422H2.62609V5.85401Z" fill="white"/>
<path d="M7.7091 4.44435C7.68079 4.14843 7.71464 3.84986 7.80848 3.5678C7.90232 3.28573 8.05408 3.02638 8.25402 2.8064C8.45396 2.58642 8.69768 2.41065 8.96953 2.29038C9.24138 2.1701 9.53537 2.10797 9.83263 2.10797C10.1299 2.10797 10.4239 2.1701 10.6957 2.29038C10.9676 2.41065 11.2113 2.58642 11.4112 2.8064C11.6112 3.02638 11.7629 3.28573 11.8568 3.5678C11.9506 3.84986 11.9845 4.14843 11.9562 4.44435C11.985 4.74057 11.9516 5.03955 11.858 5.32208C11.7644 5.6046 11.6127 5.86442 11.4127 6.08484C11.2127 6.30525 10.9688 6.48139 10.6967 6.60192C10.4246 6.72245 10.1303 6.78472 9.83263 6.78472C9.53501 6.78472 9.24068 6.72245 8.96856 6.60192C8.69643 6.48139 8.45254 6.30525 8.25255 6.08484C8.05255 5.86442 7.90089 5.6046 7.80729 5.32208C7.7137 5.03955 7.68025 4.74057 7.7091 4.44435ZM11.0421 4.44435C11.0421 3.46828 10.6036 2.89748 9.8341 2.89748C9.06164 2.89748 8.6271 3.46828 8.6271 4.44436C8.6271 5.42825 9.06167 5.99465 9.8341 5.99465C10.6036 5.99464 11.0421 5.42433 11.0421 4.44435Z" fill="white"/>
<path d="M17.6017 6.69776H16.6798L15.7491 3.38135H15.6788L14.7521 6.69776H13.839L12.5978 2.19483H13.4991L14.3058 5.63083H14.3722L15.298 2.19483H16.1505L17.0763 5.63083H17.1466L17.9493 2.19483H18.838L17.6017 6.69776Z" fill="white"/>
<path d="M19.882 2.19483H20.7374V2.91016H20.8038C20.9165 2.65324 21.1065 2.43787 21.3474 2.29406C21.5882 2.15026 21.868 2.08518 22.1476 2.10791C22.3667 2.09144 22.5867 2.12447 22.7913 2.20457C22.9959 2.28467 23.1798 2.40977 23.3295 2.57061C23.4792 2.73146 23.5908 2.92392 23.656 3.13374C23.7212 3.34356 23.7383 3.56536 23.7062 3.78271V6.69771H22.8175V4.00587C22.8175 3.28224 22.5031 2.92237 21.8458 2.92237C21.6971 2.91544 21.5486 2.94076 21.4105 2.99659C21.2724 3.05242 21.1481 3.13744 21.046 3.24583C20.9438 3.35421 20.8664 3.4834 20.8188 3.62453C20.7713 3.76566 20.7549 3.9154 20.7706 4.06348V6.69776H19.882L19.882 2.19483Z" fill="white"/>
<path d="M25.1222 0.437012H26.0109V6.69775H25.1222V0.437012Z" fill="white"/>
<path d="M27.2462 4.44435C27.2179 4.14841 27.2518 3.84983 27.3457 3.56775C27.4395 3.28567 27.5913 3.02632 27.7913 2.80633C27.9912 2.58634 28.235 2.41057 28.5068 2.2903C28.7787 2.17002 29.0727 2.10789 29.37 2.10789C29.6673 2.10789 29.9613 2.17002 30.2332 2.2903C30.505 2.41057 30.7487 2.58634 30.9487 2.80633C31.1487 3.02632 31.3005 3.28567 31.3943 3.56775C31.4882 3.84983 31.5221 4.14841 31.4938 4.44435C31.5226 4.74059 31.4891 5.03957 31.3955 5.32209C31.3019 5.60462 31.1502 5.86443 30.9501 6.08484C30.7501 6.30525 30.5062 6.48137 30.2341 6.6019C29.962 6.72243 29.6676 6.7847 29.37 6.7847C29.0724 6.7847 28.778 6.72243 28.5059 6.6019C28.2337 6.48137 27.9898 6.30525 27.7898 6.08484C27.5898 5.86443 27.4381 5.60462 27.3445 5.32209C27.2509 5.03957 27.2174 4.74059 27.2462 4.44435ZM30.5792 4.44435C30.5792 3.46828 30.1407 2.89748 29.3712 2.89748C28.5987 2.89748 28.1642 3.46828 28.1642 4.44436C28.1642 5.42825 28.5988 5.99465 29.3712 5.99465C30.1407 5.99464 30.5792 5.42433 30.5792 4.44435Z" fill="white"/>
<path d="M32.4293 5.42433C32.4293 4.61378 33.0328 4.1465 34.1041 4.08009L35.3239 4.00978V3.62111C35.3239 3.14552 35.0094 2.87697 34.402 2.87697C33.9059 2.87697 33.5621 3.0591 33.4635 3.37746H32.6031C32.694 2.60402 33.4215 2.10793 34.443 2.10793C35.5719 2.10793 36.2086 2.66993 36.2086 3.62111V6.69777H35.3531V6.06496H35.2828C35.1401 6.29195 34.9397 6.477 34.7021 6.60121C34.4645 6.72542 34.1981 6.78435 33.9303 6.77196C33.7413 6.79162 33.5502 6.77146 33.3694 6.71276C33.1887 6.65406 33.0222 6.55813 32.8808 6.43116C32.7394 6.30419 32.6262 6.149 32.5484 5.97558C32.4706 5.80217 32.4301 5.61438 32.4293 5.42433ZM35.3239 5.03956V4.6631L34.2242 4.73341C33.6041 4.77491 33.3229 4.98585 33.3229 5.38282C33.3229 5.78809 33.6744 6.02393 34.1579 6.02393C34.2995 6.03827 34.4426 6.02397 34.5786 5.98188C34.7146 5.93979 34.8408 5.87077 34.9495 5.77893C35.0583 5.68709 35.1475 5.5743 35.2118 5.44728C35.2761 5.32026 35.3142 5.1816 35.3239 5.03956Z" fill="white"/>
<path d="M37.3766 4.44435C37.3766 3.0215 38.108 2.12013 39.2457 2.12013C39.5271 2.10716 39.8064 2.17457 40.051 2.31446C40.2955 2.45436 40.4951 2.66096 40.6266 2.91013H40.693V0.437012H41.5817V6.69775H40.7301V5.98632H40.6598C40.5182 6.23381 40.3116 6.43785 40.0623 6.57633C39.8131 6.71481 39.5307 6.78246 39.2457 6.77196C38.1002 6.77201 37.3766 5.87062 37.3766 4.44435ZM38.2946 4.44435C38.2946 5.39943 38.7448 5.97414 39.4977 5.97414C40.2467 5.97414 40.7096 5.39114 40.7096 4.44826C40.7096 3.50978 40.2419 2.91847 39.4977 2.91847C38.7496 2.91847 38.2946 3.49708 38.2946 4.44435Z" fill="white"/>
<path d="M45.2584 4.44435C45.2301 4.14843 45.264 3.84986 45.3578 3.5678C45.4516 3.28573 45.6034 3.02638 45.8033 2.8064C46.0033 2.58642 46.247 2.41065 46.5188 2.29038C46.7907 2.1701 47.0847 2.10797 47.382 2.10797C47.6792 2.10797 47.9732 2.1701 48.2451 2.29038C48.5169 2.41065 48.7606 2.58642 48.9606 2.8064C49.1605 3.02638 49.3123 3.28573 49.4061 3.5678C49.4999 3.84986 49.5338 4.14843 49.5055 4.44435C49.5343 4.74057 49.5009 5.03955 49.4073 5.32208C49.3137 5.6046 49.162 5.86442 48.962 6.08484C48.762 6.30525 48.5182 6.48139 48.246 6.60192C47.9739 6.72245 47.6796 6.78472 47.382 6.78472C47.0843 6.78472 46.79 6.72245 46.5179 6.60192C46.2457 6.48139 46.0019 6.30525 45.8019 6.08484C45.6019 5.86442 45.4502 5.6046 45.3566 5.32208C45.263 5.03955 45.2296 4.74057 45.2584 4.44435ZM48.5914 4.44435C48.5914 3.46828 48.1529 2.89748 47.3834 2.89748C46.611 2.89748 46.1764 3.46828 46.1764 4.44436C46.1764 5.42825 46.611 5.99465 47.3834 5.99465C48.153 5.99464 48.5914 5.42433 48.5914 4.44435Z" fill="white"/>
<path d="M50.6979 2.19483H51.5533V2.91016H51.6198C51.7324 2.65324 51.9224 2.43787 52.1633 2.29406C52.4041 2.15026 52.6839 2.08518 52.9635 2.10791C53.1826 2.09144 53.4026 2.12447 53.6072 2.20457C53.8118 2.28467 53.9957 2.40977 54.1454 2.57061C54.2951 2.73146 54.4067 2.92392 54.4719 3.13374C54.5371 3.34356 54.5542 3.56536 54.5221 3.78271V6.69771H53.6334V4.00587C53.6334 3.28224 53.319 2.92237 52.6617 2.92237C52.513 2.91544 52.3645 2.94076 52.2264 2.99659C52.0884 3.05242 51.964 3.13744 51.8619 3.24583C51.7598 3.35421 51.6823 3.4834 51.6348 3.62453C51.5872 3.76566 51.5708 3.9154 51.5865 4.06348V6.69776H50.6979V2.19483Z" fill="white"/>
<path d="M59.5436 1.07374V2.21534H60.5192V2.96388H59.5436V5.27931C59.5436 5.75099 59.7379 5.95753 60.1803 5.95753C60.2936 5.95717 60.4067 5.95032 60.5192 5.93702V6.67725C60.3596 6.7058 60.1979 6.72099 60.0358 6.72266C59.0475 6.72266 58.6539 6.375 58.6539 5.50684V2.96384H57.9391V2.2153H58.6539V1.07374H59.5436Z" fill="white"/>
<path d="M61.733 0.437012H62.6139V2.91846H62.6842C62.8023 2.65914 62.9976 2.44255 63.2432 2.2982C63.4889 2.15386 63.7732 2.08877 64.0572 2.11182C64.2752 2.09996 64.493 2.13635 64.6953 2.21839C64.8976 2.30043 65.0793 2.42611 65.2274 2.58644C65.3755 2.74678 65.4864 2.93783 65.5522 3.14597C65.618 3.3541 65.637 3.57419 65.608 3.79053V6.69776H64.7184V4.00976C64.7184 3.29052 64.3834 2.92626 63.7555 2.92626C63.6028 2.91374 63.4492 2.93473 63.3054 2.98779C63.1616 3.04084 63.0312 3.12467 62.9232 3.23341C62.8152 3.34214 62.7322 3.47316 62.6802 3.6173C62.6281 3.76144 62.6082 3.91521 62.6217 4.06786V6.69774H61.7331L61.733 0.437012Z" fill="white"/>
<path d="M70.7897 5.48194C70.6689 5.89348 70.4073 6.24946 70.0506 6.48761C69.694 6.72576 69.2649 6.83092 68.8385 6.78467C68.5418 6.7925 68.247 6.73568 67.9745 6.61815C67.702 6.50063 67.4584 6.3252 67.2604 6.10407C67.0625 5.88293 66.9151 5.62137 66.8284 5.33755C66.7417 5.05373 66.7178 4.75444 66.7584 4.46046C66.7189 4.16558 66.7432 3.86564 66.8297 3.58097C66.9162 3.2963 67.0628 3.03353 67.2597 2.81046C67.4566 2.58739 67.6991 2.40921 67.9708 2.28801C68.2425 2.1668 68.5371 2.10538 68.8346 2.10792C70.0875 2.10792 70.8434 2.96392 70.8434 4.37792V4.68801H67.6637V4.73781C67.6498 4.90306 67.6705 5.06939 67.7247 5.22614C67.7788 5.38289 67.8651 5.5266 67.978 5.64805C68.0909 5.76951 68.2279 5.86603 68.3803 5.93143C68.5327 5.99682 68.6971 6.02965 68.8629 6.02781C69.0755 6.05333 69.2908 6.01505 69.4816 5.91785C69.6724 5.82064 69.8299 5.6689 69.9342 5.48191L70.7897 5.48194ZM67.6637 4.03077H69.9381C69.9493 3.87964 69.9287 3.72784 69.8778 3.58513C69.8268 3.44241 69.7466 3.31193 69.6422 3.20207C69.5378 3.09221 69.4116 3.00541 69.2717 2.94723C69.1317 2.88906 68.9812 2.8608 68.8297 2.86427C68.676 2.86234 68.5235 2.8912 68.3811 2.94914C68.2387 3.00709 68.1094 3.09295 68.0007 3.20166C67.8921 3.31037 67.8063 3.43974 67.7484 3.58214C67.6905 3.72453 67.6617 3.87707 67.6637 4.03077Z" fill="white"/>
</g>
</g>
</svg>
