<svg width="135" height="40" viewBox="0 0 135 40" fill="none" xmlns="http://www.w3.org/2000/svg">
<g id="Bg">
<path id="Vector" d="M130 0H5C2.23858 0 0 2.23858 0 5V35C0 37.7614 2.23858 40 5 40H130C132.761 40 135 37.7614 135 35V5C135 2.23858 132.761 0 130 0Z" fill="black"/>
<path id="Vector_2" d="M130 0.800044C131.114 0.801331 132.181 1.24427 132.968 2.03169C133.756 2.81911 134.199 3.8867 134.2 5.00024V35.0002C134.199 36.1138 133.756 37.1814 132.968 37.9688C132.181 38.7562 131.114 39.1991 130 39.2004H5C3.88645 39.1992 2.81888 38.7562 2.0315 37.9688C1.24412 37.1814 0.801231 36.1138 0.8 35.0002V5.00024C0.801212 3.88669 1.24409 2.81909 2.03148 2.03166C2.81886 1.24424 3.88644 0.801309 5 0.800044H130ZM130 0.000244141H5C3.67511 0.00412224 2.40559 0.532152 1.46875 1.46899C0.531908 2.40584 0.0038781 3.67535 0 5.00024L0 35.0002C0.0038781 36.3251 0.531908 37.5947 1.46875 38.5315C2.40559 39.4683 3.67511 39.9964 5 40.0002H130C131.325 39.9964 132.594 39.4683 133.531 38.5315C134.468 37.5947 134.996 36.3251 135 35.0002V5.00024C134.996 3.67535 134.468 2.40584 133.531 1.46899C132.594 0.532152 131.325 0.00412224 130 0.000244141Z" fill="#A6A6A6"/>
</g>
</svg>
