<svg width="112" height="32" viewBox="0 0 112 32" fill="none" xmlns="http://www.w3.org/2000/svg">
<g id="Layer 2">
<g id="Group">
<path id="Vector" d="M12.129 5.29694V14.3233H3.90462V5.29694H0V26.8437H3.90462V18.1104H12.129V26.8437H16.0336V5.29694H12.129Z" fill="#33475B"/>
<path id="Vector_2" d="M28.5299 19.8786C28.5299 20.7422 28.1895 21.5703 27.5837 22.1809C26.9779 22.7915 26.1563 23.1346 25.2996 23.1346C24.4429 23.1346 23.6213 22.7915 23.0155 22.1809C22.4097 21.5703 22.0693 20.7422 22.0693 19.8786V10.6498H18.3656V19.8786C18.3656 21.7305 19.0954 23.5065 20.3946 24.8159C21.6937 26.1254 23.4557 26.861 25.2929 26.861C27.1301 26.861 28.8921 26.1254 30.1912 24.8159C31.4904 23.5065 32.2202 21.7305 32.2202 19.8786V10.6498H28.5299V19.8786Z" fill="#33475B"/>
<path id="Vector_3" d="M55.9715 11.6005C55.9715 9.70887 57.2131 9.10917 58.5733 9.10917C59.6695 9.10917 61.1177 9.9499 62.0647 10.97L64.4905 8.0891C63.2795 6.43849 60.8231 5.29694 58.8124 5.29694C54.7949 5.29694 51.889 7.66874 51.889 11.6005C51.889 18.8953 60.7351 16.5813 60.7351 20.6635C60.7351 21.9227 59.5222 23.0353 58.1333 23.0353C55.9428 23.0353 55.233 21.9555 54.2268 20.8139L51.535 23.635C53.2568 25.7658 55.3804 26.8475 57.9248 26.8475C61.7414 26.8475 64.8119 24.4468 64.8119 20.6943C64.8119 12.5955 55.9658 15.1119 55.9658 11.6005" fill="#33475B"/>
<path id="Vector_4" d="M110.697 23.4017C108.508 23.4017 107.887 22.4472 107.887 20.9855V14.5161H111.288V11.238H107.887V6.91284L104.131 8.61167V21.7896C104.131 25.1603 106.439 26.8591 109.603 26.8591C110.099 26.8682 110.595 26.8282 111.084 26.7395L112 23.34C111.587 23.3689 111.112 23.3978 110.697 23.3978" fill="#33475B"/>
<path id="Vector_5" d="M42.6275 10.7579C40.7928 10.7579 39.513 11.2939 38.2752 12.5184V5.42615H34.5657V18.5713C34.5657 23.4923 38.0954 26.863 42.0612 26.863C46.4613 26.863 50.3315 23.4325 50.3315 18.8123C50.3315 14.25 46.7693 10.7598 42.6275 10.7598V10.7579ZM42.6045 23.1009C41.7721 23.1009 40.9584 22.8521 40.2663 22.3859C39.5741 21.9198 39.0347 21.2572 38.7161 20.4821C38.3976 19.7069 38.3142 18.8539 38.4766 18.031C38.639 17.2081 39.0399 16.4522 39.6285 15.8589C40.2171 15.2656 40.967 14.8616 41.7834 14.6979C42.5999 14.5342 43.4461 14.6182 44.2152 14.9393C44.9842 15.2604 45.6416 15.8041 46.104 16.5018C46.5665 17.1994 46.8133 18.0196 46.8133 18.8586C46.8133 19.9837 46.3699 21.0628 45.5806 21.8583C44.7913 22.6539 43.7208 23.1009 42.6045 23.1009Z" fill="#33475B"/>
<path id="Vector_6" d="M82.9056 18.6157C82.9056 13.9878 79.0431 10.5651 74.6353 10.5651C70.6695 10.5651 67.1398 13.9357 67.1398 18.8567V32.0096H70.8493V24.9077C72.0852 26.1302 73.3669 26.6682 75.1997 26.6682C79.3415 26.6682 82.9037 23.1799 82.9037 18.6157H82.9056ZM79.3932 18.5694C79.3932 19.4084 79.1463 20.2286 78.6839 20.9263C78.2214 21.6239 77.5641 22.1676 76.795 22.4887C76.0259 22.8098 75.1797 22.8938 74.3633 22.7301C73.5468 22.5664 72.7969 22.1624 72.2083 21.5691C71.6197 20.9758 71.2188 20.2199 71.0564 19.397C70.894 18.5741 70.9774 17.7211 71.2959 16.946C71.6145 16.1708 72.154 15.5082 72.8461 15.0421C73.5382 14.576 74.3519 14.3272 75.1844 14.3272C76.3006 14.3272 77.3711 14.7741 78.1604 15.5697C78.9497 16.3653 79.3932 17.4443 79.3932 18.5694Z" fill="#33475B"/>
</g>
<path id="Vector_7" d="M94.8894 10.3838V6.62751C95.3819 6.39556 95.7989 6.02739 96.0918 5.56585C96.3848 5.1043 96.5417 4.56838 96.5442 4.02046V3.93369C96.5442 3.16657 96.2419 2.43086 95.7037 1.88843C95.1656 1.34599 94.4356 1.04125 93.6746 1.04125H93.5885C92.8274 1.04125 92.0975 1.34599 91.5593 1.88843C91.0212 2.43086 90.7189 3.16657 90.7189 3.93369V4.02046C90.7214 4.56838 90.8783 5.1043 91.1712 5.56585C91.4642 6.02739 91.8812 6.39556 92.3737 6.62751V10.3838C90.9582 10.6021 89.625 11.1935 88.5092 12.0981L78.2895 4.07445C78.3618 3.80987 78.4004 3.53706 78.4043 3.26264C78.4054 2.61803 78.2169 1.98756 77.8625 1.45097C77.5081 0.914387 77.0037 0.495796 76.4133 0.248144C75.8228 0.000492028 75.1728 -0.0650939 74.5453 0.0596818C73.9179 0.184458 73.3413 0.493989 72.8884 0.949125C72.4355 1.40426 72.1267 1.98455 72.0011 2.6166C71.8754 3.24866 71.9386 3.90407 72.1825 4.49994C72.4265 5.09582 72.8403 5.60538 73.3716 5.96418C73.9029 6.32299 74.5278 6.51491 75.1673 6.51567C75.7266 6.51315 76.2754 6.36289 76.759 6.07988L86.8238 13.9724C85.9194 15.3491 85.4476 16.9686 85.4698 18.6196C85.492 20.2706 86.0071 21.8766 86.9481 23.2282L83.8872 26.3134C83.6397 26.2338 83.3818 26.1915 83.122 26.1881C82.5969 26.1885 82.0838 26.3457 81.6474 26.64C81.2111 26.9342 80.871 27.3522 80.6703 27.8412C80.4695 28.3302 80.4171 28.8682 80.5196 29.3872C80.6222 29.9062 80.875 30.3829 81.2463 30.7571C81.6175 31.1313 82.0905 31.3862 82.6054 31.4895C83.1203 31.5929 83.654 31.54 84.1392 31.3377C84.6243 31.1353 85.039 30.7926 85.3309 30.3527C85.6229 29.9129 85.7789 29.3957 85.7793 28.8665C85.776 28.6046 85.7341 28.3447 85.6549 28.0952L88.6833 25.0427C89.6708 25.8086 90.8191 26.3366 92.0403 26.5862C93.2615 26.8358 94.5232 26.8003 95.7287 26.4826C96.9342 26.1648 98.0516 25.5732 98.9952 24.7529C99.9388 23.9327 100.684 22.9057 101.173 21.7505C101.662 20.5954 101.882 19.3427 101.817 18.0885C101.751 16.8343 101.402 15.6118 100.796 14.5147C100.189 13.4175 99.3415 12.4748 98.3177 11.7588C97.294 11.0428 96.1213 10.5725 94.8894 10.3838ZM93.6344 22.7365C92.806 22.7357 91.9964 22.4874 91.308 22.023C90.6195 21.5586 90.0831 20.8989 89.7666 20.1273C89.45 19.3557 89.3675 18.5069 89.5294 17.688C89.6913 16.8691 90.0905 16.117 90.6764 15.5267C91.2623 14.9365 92.0086 14.5345 92.8211 14.3716C93.6336 14.2088 94.4757 14.2924 95.2411 14.6118C96.0065 14.9313 96.6607 15.4722 97.1211 16.1664C97.5816 16.8605 97.8275 17.6766 97.8279 18.5116C97.8279 19.6316 97.3865 20.7057 96.6008 21.4977C95.8151 22.2896 94.7494 22.7345 93.6382 22.7345" fill="#FF7A59"/>
</g>
</svg>
