<svg width="30" height="31" viewBox="0 0 30 31" fill="none" xmlns="http://www.w3.org/2000/svg">
<g id="Group">
<path id="Vector" d="M11 12.8334H1.66671C1.31309 12.8334 0.973946 12.6929 0.723897 12.4429C0.473849 12.1928 0.333374 11.8537 0.333374 11.5V2.16671C0.333374 1.81309 0.473849 1.47395 0.723897 1.2239C0.973946 0.973849 1.31309 0.833374 1.66671 0.833374H11C11.3537 0.833374 11.6928 0.973849 11.9429 1.2239C12.1929 1.47395 12.3334 1.81309 12.3334 2.16671V11.5C12.3334 11.8537 12.1929 12.1928 11.9429 12.4429C11.6928 12.6929 11.3537 12.8334 11 12.8334Z" fill="#7C3AED"/>
<path id="Vector_2" d="M11 30.1667H1.66671C1.31309 30.1667 0.973946 30.0263 0.723897 29.7762C0.473849 29.5262 0.333374 29.187 0.333374 28.8334V19.5001C0.333374 19.1465 0.473849 18.8073 0.723897 18.5573C0.973946 18.3072 1.31309 18.1667 1.66671 18.1667H11C11.3537 18.1667 11.6928 18.3072 11.9429 18.5573C12.1929 18.8073 12.3334 19.1465 12.3334 19.5001V28.8334C12.3334 29.187 12.1929 29.5262 11.9429 29.7762C11.6928 30.0263 11.3537 30.1667 11 30.1667Z" fill="#7C3AED"/>
<path id="Vector_3" d="M16.3334 2.16675H29.6667V4.83341H16.3334V2.16675Z" fill="#1DB5BE"/>
<path id="Vector_4" d="M29.6667 19.5H16.3334V22.1667H29.6667V19.5Z" fill="#1DB5BE"/>
<path id="Vector_5" d="M29.6667 26.1667H16.3334V28.8334H29.6667V26.1667Z" fill="#C4B5FD"/>
<path id="Vector_6" d="M29.6667 8.83337H16.3334V11.5H29.6667V8.83337Z" fill="#C4B5FD"/>
</g>
</svg>
