<svg width="28" height="33" viewBox="0 0 28 33" fill="none" xmlns="http://www.w3.org/2000/svg">
<g id="Group">
<path id="Vector" d="M26 32.5H14C13.6463 32.5 13.3072 32.3595 13.0571 32.1094C12.8071 31.8594 12.6666 31.5202 12.6666 31.1666V28.5C12.6666 28.1463 12.8071 27.8072 13.0571 27.5571C13.3072 27.3071 13.6463 27.1666 14 27.1666H26C26.3536 27.1666 26.6927 27.3071 26.9428 27.5571C27.1928 27.8072 27.3333 28.1463 27.3333 28.5V31.1666C27.3333 31.5202 27.1928 31.8594 26.9428 32.1094C26.6927 32.3595 26.3536 32.5 26 32.5Z" fill="#C4B5FD"/>
<path id="Vector_2" d="M26 0.5H1.99996C1.64634 0.5 1.3072 0.640475 1.05715 0.890523C0.807101 1.14057 0.666626 1.47971 0.666626 1.83333V4.5C0.666626 4.85362 0.807101 5.19276 1.05715 5.44281C1.3072 5.69286 1.64634 5.83333 1.99996 5.83333H26C26.3536 5.83333 26.6927 5.69286 26.9428 5.44281C27.1928 5.19276 27.3333 4.85362 27.3333 4.5V1.83333C27.3333 1.47971 27.1928 1.14057 26.9428 0.890523C26.6927 0.640475 26.3536 0.5 26 0.5Z" fill="#1DB5BE"/>
<path id="Vector_3" d="M26 8.5H1.99996C1.64634 8.5 1.3072 8.64047 1.05715 8.89052C0.807101 9.14057 0.666626 9.47971 0.666626 9.83333V23.1667C0.666626 23.5203 0.807101 23.8594 1.05715 24.1095C1.3072 24.3595 1.64634 24.5 1.99996 24.5H26C26.3536 24.5 26.6927 24.3595 26.9428 24.1095C27.1928 23.8594 27.3333 23.5203 27.3333 23.1667V9.83333C27.3333 9.47971 27.1928 9.14057 26.9428 8.89052C26.6927 8.64047 26.3536 8.5 26 8.5Z" fill="#7C3AED"/>
</g>
</svg>
