<svg width="30" height="31" viewBox="0 0 30 31" fill="none" xmlns="http://www.w3.org/2000/svg">
<g id="Group">
<path id="Vector" d="M5.66671 0.833374H1.66671C1.31309 0.833374 0.973946 0.973849 0.723897 1.2239C0.473849 1.47395 0.333374 1.81309 0.333374 2.16671V28.8334C0.333374 29.187 0.473849 29.5261 0.723897 29.7762C0.973946 30.0262 1.31309 30.1667 1.66671 30.1667H5.66671V0.833374Z" fill="#C4B5FD"/>
<path id="Vector_2" d="M8.33337 30.1667H21.6667V0.833374H8.33337V30.1667ZM15 24.8334C14.6464 24.8334 14.3073 24.6929 14.0572 24.4429C13.8072 24.1928 13.6667 23.8537 13.6667 23.5C13.6667 23.1464 13.8072 22.8073 14.0572 22.5572C14.3073 22.3072 14.6464 22.1667 15 22.1667C15.3537 22.1667 15.6928 22.3072 15.9429 22.5572C16.1929 22.8073 16.3334 23.1464 16.3334 23.5C16.3334 23.8537 16.1929 24.1928 15.9429 24.4429C15.6928 24.6929 15.3537 24.8334 15 24.8334ZM15 6.16671C15.3537 6.16671 15.6928 6.30718 15.9429 6.55723C16.1929 6.80728 16.3334 7.14642 16.3334 7.50004C16.3334 7.85366 16.1929 8.1928 15.9429 8.44285C15.6928 8.6929 15.3537 8.83337 15 8.83337C14.6464 8.83337 14.3073 8.6929 14.0572 8.44285C13.8072 8.1928 13.6667 7.85366 13.6667 7.50004C13.6667 7.14642 13.8072 6.80728 14.0572 6.55723C14.3073 6.30718 14.6464 6.16671 15 6.16671ZM15 14.1667C15.3537 14.1667 15.6928 14.3072 15.9429 14.5572C16.1929 14.8073 16.3334 15.1464 16.3334 15.5C16.3334 15.8537 16.1929 16.1928 15.9429 16.4429C15.6928 16.6929 15.3537 16.8334 15 16.8334C14.6464 16.8334 14.3073 16.6929 14.0572 16.4429C13.8072 16.1928 13.6667 15.8537 13.6667 15.5C13.6667 15.1464 13.8072 14.8073 14.0572 14.5572C14.3073 14.3072 14.6464 14.1667 15 14.1667Z" fill="#7C3AED"/>
<path id="Vector_3" d="M28.3334 0.833374H24.3334V30.1667H28.3334C28.687 30.1667 29.0261 30.0262 29.2762 29.7762C29.5262 29.5261 29.6667 29.187 29.6667 28.8334V2.16671C29.6667 1.81309 29.5262 1.47395 29.2762 1.2239C29.0261 0.973849 28.687 0.833374 28.3334 0.833374Z" fill="#1DB5BE"/>
</g>
</svg>
