<svg width="78" height="22" viewBox="0 0 78 22" fill="none" xmlns="http://www.w3.org/2000/svg">
<g id="Landify">
<path d="M4.17142 13.48V0.999987H0.514282V17H9.88571V13.48H4.17142Z" fill="black"/>
<path d="M19.5677 5.57142V6.6457C18.8134 5.77713 17.6934 5.25142 16.162 5.25142C13.1677 5.25142 10.6991 7.87999 10.6991 11.2857C10.6991 14.6914 13.1677 17.32 16.162 17.32C17.6934 17.32 18.8134 16.7943 19.5677 15.9257V17H22.9962V5.57142H19.5677ZM16.8477 14.0743C15.2705 14.0743 14.1277 13 14.1277 11.2857C14.1277 9.57142 15.2705 8.49713 16.8477 8.49713C18.4248 8.49713 19.5677 9.57142 19.5677 11.2857C19.5677 13 18.4248 14.0743 16.8477 14.0743Z" fill="black"/>
<path d="M32.2087 5.25142C30.7002 5.25142 29.5573 5.79999 28.9402 6.6457V5.57142H25.5116V17H28.9402V10.76C28.9402 9.13713 29.8087 8.4057 31.0659 8.4057C32.163 8.4057 33.0545 9.06856 33.0545 10.4857V17H36.483V9.98285C36.483 6.89713 34.5173 5.25142 32.2087 5.25142Z" fill="black"/>
<path d="M47.1346 0.999987V6.6457C46.3803 5.77713 45.2603 5.25142 43.7289 5.25142C40.7346 5.25142 38.2661 7.87999 38.2661 11.2857C38.2661 14.6914 40.7346 17.32 43.7289 17.32C45.2603 17.32 46.3803 16.7943 47.1346 15.9257V17H50.5632V0.999987H47.1346ZM44.4146 14.0743C42.8375 14.0743 41.6946 13 41.6946 11.2857C41.6946 9.57142 42.8375 8.49713 44.4146 8.49713C45.9918 8.49713 47.1346 9.57142 47.1346 11.2857C47.1346 13 45.9918 14.0743 44.4146 14.0743Z" fill="black"/>
<path d="M54.7928 4.5657C55.9128 4.5657 56.85 3.62856 56.85 2.50856C56.85 1.38856 55.9128 0.451416 54.7928 0.451416C53.6728 0.451416 52.7357 1.38856 52.7357 2.50856C52.7357 3.62856 53.6728 4.5657 54.7928 4.5657ZM53.0786 17H56.5071V5.57142H53.0786V17Z" fill="black"/>
<path d="M65.3018 3.97142V0.679987C61.5075 0.451416 59.7475 2.37142 59.7475 5.57142H58.2161V8.86285H59.7475V17H63.1761V8.86285H65.3018V5.57142H63.1761C63.1761 4.2457 64.0218 3.85713 65.3018 3.97142Z" fill="black"/>
<path d="M74.2071 5.57142L72.0586 12.5657L69.5214 5.57142H65.75L70.2986 16.4743C69.7957 17.8686 69.0414 18.3714 67.4414 18.3714V21.5714C70.6414 21.7314 72.6757 20.2914 73.9557 16.6571L77.8643 5.57142H74.2071Z" fill="black"/>
</g>
</svg>
