<svg width="85" height="29" viewBox="0 0 85 29" fill="none" xmlns="http://www.w3.org/2000/svg">
<g id="Text">
<g id="Vector">
<path d="M6.4184 4.24334C6.43657 4.61028 6.37988 4.97709 6.25177 5.32142C6.12365 5.66576 5.9268 5.98041 5.6732 6.24624C5.38898 6.541 5.04574 6.77244 4.66592 6.92541C4.2861 7.07838 3.87827 7.14944 3.4691 7.13394C3.05732 7.13763 2.64895 7.05896 2.26801 6.90257C1.88706 6.74618 1.54123 6.51521 1.25082 6.22325C0.960413 5.93129 0.731304 5.58422 0.576949 5.20245C0.422595 4.82067 0.346113 4.41189 0.352 4.00014C0.346159 3.58837 0.422668 3.17959 0.577033 2.79781C0.731398 2.41603 0.960502 2.06895 1.25089 1.77695C1.54128 1.48496 1.8871 1.25395 2.26803 1.09748C2.64895 0.941022 3.05731 0.862264 3.4691 0.865839C3.89248 0.86456 4.31162 0.950158 4.7006 1.11734C5.06186 1.26378 5.38342 1.49348 5.6391 1.78774L5.1117 2.31554C4.91072 2.07899 4.65809 1.89178 4.37329 1.76834C4.08849 1.64491 3.77913 1.58856 3.4691 1.60364C3.15702 1.60202 2.84782 1.66341 2.56003 1.78412C2.27223 1.90483 2.01176 2.08239 1.79421 2.30615C1.57666 2.52991 1.4065 2.79527 1.29394 3.08635C1.18137 3.37743 1.1287 3.68823 1.1391 4.00014C1.13166 4.46734 1.26312 4.92622 1.51682 5.3186C1.77052 5.71099 2.13503 6.01919 2.56412 6.20414C2.99322 6.38909 3.46757 6.44245 3.92703 6.35746C4.38649 6.27247 4.81036 6.05295 5.1449 5.72674C5.45279 5.39498 5.63126 4.96365 5.6478 4.51134H3.4691V3.79064H6.3764C6.40389 3.93998 6.41794 4.09149 6.4184 4.24334Z" fill="white"/>
<path d="M11.0277 1.73744H8.2953V3.63974H10.7592V4.36054H8.2953V6.26284H11.0277V7.00014H7.5248V1.00014H11.0277V1.73744Z" fill="white"/>
<path d="M14.2787 7.00014H13.5072V1.73744H11.8314V1.00014H15.9545V1.73744H14.2787V7.00014Z" fill="white"/>
<path d="M18.9379 7.00014V1.00014H19.7084V7.00014H18.9379Z" fill="white"/>
<path d="M23.1283 7.00014H22.3568V1.73744H20.6811V1.00014H24.8041V1.73744H23.1283V7.00014Z" fill="white"/>
<path d="M32.6093 6.22474C32.0253 6.80699 31.2343 7.13394 30.4096 7.13394C29.5849 7.13394 28.7939 6.80699 28.2099 6.22474C27.921 5.93211 27.6939 5.58438 27.542 5.20221C27.3902 4.82005 27.3168 4.41125 27.3261 4.00014C27.3168 3.58902 27.3902 3.18023 27.542 2.79807C27.6939 2.4159 27.921 2.06817 28.2099 1.77554C28.4986 1.48681 28.8413 1.25784 29.2186 1.10174C29.5958 0.94564 30.0002 0.865478 30.4085 0.86584C30.8167 0.866202 31.2209 0.947082 31.5979 1.10385C31.9749 1.26062 32.3173 1.49019 32.6054 1.77944C32.8945 2.0713 33.1221 2.41825 33.2746 2.79972C33.4271 3.18119 33.5014 3.5894 33.4931 4.00014C33.5022 4.41122 33.4286 4.81994 33.2768 5.20207C33.125 5.5842 32.898 5.93196 32.6093 6.22474ZM28.7792 5.72234C29.2117 6.15413 29.7979 6.39665 30.4091 6.39665C31.0203 6.39665 31.6065 6.15413 32.039 5.72234C32.2608 5.49526 32.4343 5.22557 32.5489 4.92956C32.6636 4.63355 32.717 4.31738 32.706 4.00014C32.717 3.6829 32.6636 3.36672 32.5489 3.07072C32.4343 2.77471 32.2608 2.50502 32.039 2.27794C31.6065 1.84615 31.0203 1.60363 30.4091 1.60363C29.7979 1.60363 29.2117 1.84615 28.7792 2.27794C28.5577 2.5052 28.3845 2.77495 28.2701 3.07092C28.1556 3.3669 28.1022 3.68299 28.1132 4.00014C28.1022 4.31729 28.1556 4.63338 28.2701 4.92935C28.3845 5.22533 28.5577 5.49508 28.7792 5.72234Z" fill="white"/>
<path d="M34.5751 7.00014V1.00014H35.5136L38.4296 5.66764H38.4628L38.4296 4.51134V1.00014H39.2011V7.00014H38.3964L35.3456 2.10654H35.3124L35.3456 3.26284V7.00014H34.5751Z" fill="white"/>
<path d="M6.4184 4.24334C6.43657 4.61028 6.37988 4.97709 6.25177 5.32142C6.12365 5.66576 5.9268 5.98041 5.6732 6.24624C5.38898 6.541 5.04574 6.77244 4.66592 6.92541C4.2861 7.07838 3.87827 7.14944 3.4691 7.13394C3.05732 7.13763 2.64895 7.05896 2.26801 6.90257C1.88706 6.74618 1.54123 6.51521 1.25082 6.22325C0.960413 5.93129 0.731304 5.58422 0.576949 5.20245C0.422595 4.82067 0.346113 4.41189 0.352 4.00014C0.346159 3.58837 0.422668 3.17959 0.577033 2.79781C0.731398 2.41603 0.960502 2.06895 1.25089 1.77695C1.54128 1.48496 1.8871 1.25395 2.26803 1.09748C2.64895 0.941022 3.05731 0.862264 3.4691 0.865839C3.89248 0.86456 4.31162 0.950158 4.7006 1.11734C5.06186 1.26378 5.38342 1.49348 5.6391 1.78774L5.1117 2.31554C4.91072 2.07899 4.65809 1.89178 4.37329 1.76834C4.08849 1.64491 3.77913 1.58856 3.4691 1.60364C3.15702 1.60202 2.84782 1.66341 2.56003 1.78412C2.27223 1.90483 2.01176 2.08239 1.79421 2.30615C1.57666 2.52991 1.4065 2.79527 1.29394 3.08635C1.18137 3.37743 1.1287 3.68823 1.1391 4.00014C1.13166 4.46734 1.26312 4.92622 1.51682 5.3186C1.77052 5.71099 2.13503 6.01919 2.56412 6.20414C2.99322 6.38909 3.46757 6.44245 3.92703 6.35746C4.38649 6.27247 4.81036 6.05295 5.1449 5.72674C5.45279 5.39498 5.63126 4.96365 5.6478 4.51134H3.4691V3.79064H6.3764C6.40389 3.93998 6.41794 4.09149 6.4184 4.24334Z" stroke="white" stroke-width="0.2" stroke-miterlimit="10"/>
<path d="M11.0277 1.73744H8.2953V3.63974H10.7592V4.36054H8.2953V6.26284H11.0277V7.00014H7.5248V1.00014H11.0277V1.73744Z" stroke="white" stroke-width="0.2" stroke-miterlimit="10"/>
<path d="M14.2787 7.00014H13.5072V1.73744H11.8314V1.00014H15.9545V1.73744H14.2787V7.00014Z" stroke="white" stroke-width="0.2" stroke-miterlimit="10"/>
<path d="M18.9379 7.00014V1.00014H19.7084V7.00014H18.9379Z" stroke="white" stroke-width="0.2" stroke-miterlimit="10"/>
<path d="M23.1283 7.00014H22.3568V1.73744H20.6811V1.00014H24.8041V1.73744H23.1283V7.00014Z" stroke="white" stroke-width="0.2" stroke-miterlimit="10"/>
<path d="M32.6093 6.22474C32.0253 6.80699 31.2343 7.13394 30.4096 7.13394C29.5849 7.13394 28.7939 6.80699 28.2099 6.22474C27.921 5.93211 27.6939 5.58438 27.542 5.20221C27.3902 4.82005 27.3168 4.41125 27.3261 4.00014C27.3168 3.58902 27.3902 3.18023 27.542 2.79807C27.6939 2.4159 27.921 2.06817 28.2099 1.77554C28.4986 1.48681 28.8413 1.25784 29.2186 1.10174C29.5958 0.94564 30.0002 0.865478 30.4085 0.86584C30.8167 0.866202 31.2209 0.947082 31.5979 1.10385C31.9749 1.26062 32.3173 1.49019 32.6054 1.77944C32.8945 2.0713 33.1221 2.41825 33.2746 2.79972C33.4271 3.18119 33.5014 3.5894 33.4931 4.00014C33.5022 4.41122 33.4286 4.81994 33.2768 5.20207C33.125 5.5842 32.898 5.93196 32.6093 6.22474ZM28.7792 5.72234C29.2117 6.15413 29.7979 6.39665 30.4091 6.39665C31.0203 6.39665 31.6065 6.15413 32.039 5.72234C32.2608 5.49526 32.4343 5.22557 32.5489 4.92956C32.6636 4.63355 32.717 4.31738 32.706 4.00014C32.717 3.6829 32.6636 3.36672 32.5489 3.07072C32.4343 2.77471 32.2608 2.50502 32.039 2.27794C31.6065 1.84615 31.0203 1.60363 30.4091 1.60363C29.7979 1.60363 29.2117 1.84615 28.7792 2.27794C28.5577 2.5052 28.3845 2.77495 28.2701 3.07092C28.1556 3.3669 28.1022 3.68299 28.1132 4.00014C28.1022 4.31729 28.1556 4.63338 28.2701 4.92935C28.3845 5.22533 28.5577 5.49508 28.7792 5.72234Z" stroke="white" stroke-width="0.2" stroke-miterlimit="10"/>
<path d="M34.5751 7.00014V1.00014H35.5136L38.4296 5.66764H38.4628L38.4296 4.51134V1.00014H39.2011V7.00014H38.3964L35.3456 2.10654H35.3124L35.3456 3.26284V7.00014H34.5751Z" stroke="white" stroke-width="0.2" stroke-miterlimit="10"/>
</g>
<path id="Vector_2" d="M27.1357 15.7517C26.2952 15.7549 25.4745 16.007 24.7772 16.4763C24.0799 16.9456 23.5373 17.611 23.2178 18.3884C22.8984 19.1659 22.8165 20.0205 22.9824 20.8445C23.1483 21.6685 23.5547 22.4248 24.1501 23.018C24.7456 23.6112 25.5035 24.0147 26.3281 24.1775C27.1527 24.3403 28.007 24.2551 28.7832 23.9327C29.5595 23.6103 30.2228 23.0652 30.6894 22.3661C31.156 21.667 31.4051 20.8453 31.405 20.0048C31.4133 19.4426 31.3084 18.8845 31.0966 18.3637C30.8847 17.8429 30.5703 17.37 30.172 16.9732C29.7737 16.5764 29.2996 16.2638 28.778 16.0539C28.2564 15.8441 27.6979 15.7413 27.1357 15.7517ZM27.1357 22.5825C26.6181 22.6194 26.1014 22.4996 25.6528 22.2387C25.2042 21.9778 24.8445 21.5879 24.6207 21.1198C24.3968 20.6516 24.319 20.1269 24.3975 19.6139C24.476 19.101 24.7071 18.6235 25.0608 18.2438C25.4144 17.864 25.8742 17.5995 26.3803 17.4847C26.8864 17.3699 27.4153 17.4101 27.8982 17.6001C28.3811 17.7902 28.7956 18.1212 29.0877 18.5501C29.3799 18.979 29.5361 19.4859 29.5361 20.0048C29.5519 20.3326 29.5018 20.6603 29.389 20.9685C29.2761 21.2767 29.1028 21.5593 28.8791 21.7994C28.6554 22.0396 28.386 22.2327 28.0866 22.3671C27.7872 22.5016 27.4639 22.5749 27.1357 22.5825ZM17.8223 15.7517C16.9818 15.7549 16.1611 16.007 15.4638 16.4763C14.7665 16.9455 14.2238 17.6109 13.9044 18.3884C13.5849 19.1658 13.503 20.0205 13.6689 20.8444C13.8348 21.6684 14.2411 22.4248 14.8366 23.018C15.4321 23.6112 16.1899 24.0147 17.0145 24.1775C17.8391 24.3403 18.6935 24.2551 19.4697 23.9327C20.246 23.6103 20.9093 23.0652 21.3759 22.3661C21.8425 21.667 22.0916 20.8453 22.0915 20.0048C22.0998 19.4426 21.9949 18.8845 21.7831 18.3637C21.5713 17.8429 21.2568 17.3701 20.8585 16.9733C20.4602 16.5765 19.9862 16.2638 19.4646 16.054C18.943 15.8441 18.3845 15.7413 17.8223 15.7517ZM17.8223 22.5825C17.3047 22.6194 16.788 22.4996 16.3394 22.2387C15.8908 21.9778 15.5311 21.5879 15.3073 21.1198C15.0834 20.6516 15.0056 20.1269 15.0841 19.6139C15.1626 19.101 15.3937 18.6235 15.7474 18.2438C16.101 17.864 16.5608 17.5995 17.0669 17.4847C17.573 17.3699 18.1019 17.4101 18.5848 17.6001C19.0677 17.7902 19.4822 18.1212 19.7743 18.5501C20.0665 18.979 20.2227 19.4859 20.2227 20.0048C20.2385 20.3326 20.1884 20.6603 20.0756 20.9685C19.9628 21.2767 19.7894 21.5593 19.5657 21.7995C19.342 22.0397 19.0726 22.2327 18.7732 22.3672C18.4738 22.5016 18.1505 22.5749 17.8223 22.5825ZM6.74355 17.0567V18.861H11.0612C10.9989 19.7073 10.6526 20.5078 10.0784 21.1326C9.64576 21.5736 9.12543 21.9191 8.55102 22.1466C7.9766 22.3741 7.36087 22.4787 6.74355 22.4536C5.48153 22.4365 4.27699 21.9232 3.39058 21.0247C2.50418 20.1262 2.00721 18.9148 2.00721 17.6527C2.00721 16.3906 2.50418 15.1792 3.39058 14.2807C4.27699 13.3822 5.48153 12.8689 6.74355 12.8518C7.95576 12.836 9.12526 13.2991 9.99795 14.1406L11.2706 12.8679C10.6752 12.2784 9.96806 11.8137 9.19068 11.5011C8.4133 11.1885 7.58133 11.0343 6.74355 11.0474C5.86803 11.0347 4.99872 11.1961 4.18616 11.5223C3.3736 11.8485 2.63399 12.3331 2.01036 12.9477C1.38672 13.5623 0.891496 14.2948 0.553474 15.1025C0.215453 15.9102 0.0413818 16.7771 0.0413818 17.6527C0.0413818 18.5283 0.215453 19.3952 0.553474 20.2029C0.891496 21.0106 1.38672 21.7431 2.01036 22.3577C2.63399 22.9724 3.3736 23.4569 4.18616 23.7831C4.99872 24.1093 5.86803 24.2708 6.74355 24.258C7.59901 24.2935 8.45223 24.1466 9.24661 23.8272C10.041 23.5078 10.7584 23.0231 11.3511 22.4053C12.4036 21.2566 12.9645 19.7415 12.9139 18.1844C12.9181 17.8063 12.8857 17.4286 12.8171 17.0567H6.74355ZM52.0518 18.4582C51.7962 17.6878 51.3097 17.0148 50.6583 16.5306C50.0069 16.0464 49.2222 15.7744 48.4108 15.7517C47.8644 15.7551 47.3243 15.8693 46.8232 16.0873C46.3221 16.3053 45.8704 16.6227 45.4955 17.0203C45.1205 17.4178 44.8301 17.8873 44.6417 18.4002C44.4533 18.9132 44.3709 19.4591 44.3994 20.0048C44.3871 20.564 44.4876 21.1199 44.695 21.6394C44.9024 22.1588 45.2123 22.6312 45.6063 23.0282C46.0002 23.4252 46.4702 23.7387 46.9881 23.95C47.5059 24.1613 48.0611 24.2661 48.6203 24.258C49.321 24.2619 50.0116 24.0917 50.6302 23.7627C51.2489 23.4337 51.7761 22.9562 52.1645 22.3731L50.7146 21.4065C50.4974 21.7672 50.1902 22.0653 49.823 22.2715C49.4559 22.4776 49.0414 22.5848 48.6203 22.5825C48.187 22.5991 47.7588 22.4851 47.391 22.2553C47.0233 22.0254 46.7331 21.6904 46.5581 21.2937L52.2452 18.9416L52.0518 18.4582ZM46.2521 19.876C46.2321 19.5664 46.274 19.256 46.3754 18.9628C46.4768 18.6697 46.6357 18.3997 46.8427 18.1687C47.0497 17.9376 47.3007 17.7502 47.581 17.6174C47.8614 17.4845 48.1654 17.4089 48.4753 17.395C48.7979 17.3738 49.1197 17.448 49.4005 17.6084C49.6813 17.7689 49.9086 18.0084 50.0541 18.2972L46.2521 19.876ZM41.6283 24.0002H43.4971V11.4986H41.6283V24.0002ZM38.5673 16.7022H38.5029C38.2188 16.3935 37.8721 16.149 37.4859 15.9851C37.0997 15.8212 36.683 15.7416 36.2635 15.7517C35.1669 15.7984 34.1306 16.2669 33.3711 17.0594C32.6116 17.8519 32.1876 18.9072 32.1876 20.0049C32.1876 21.1025 32.6116 22.1578 33.3711 22.9503C34.1306 23.7428 35.1669 24.2113 36.2635 24.258C36.6846 24.2692 37.1031 24.1885 37.4898 24.0216C37.8766 23.8547 38.2223 23.6055 38.5029 23.2914H38.5673V23.9036C38.5673 25.5308 37.6974 26.4007 36.2957 26.4007C35.8286 26.3895 35.3754 26.2395 34.9938 25.9698C34.6122 25.7001 34.3196 25.3229 34.1531 24.8863L32.5259 25.563C32.8326 26.3097 33.3553 26.9478 34.0269 27.3955C34.6985 27.8433 35.4886 28.0803 36.2957 28.0762C38.4868 28.0762 40.3395 26.7874 40.3395 23.6458V16.0094H38.5673V16.7022ZM36.4247 22.5825C35.7788 22.5277 35.177 22.2324 34.7384 21.7551C34.2998 21.2777 34.0564 20.6531 34.0564 20.0049C34.0564 19.3566 34.2998 18.732 34.7384 18.2546C35.177 17.7773 35.7788 17.482 36.4247 17.4272C36.7461 17.4429 37.061 17.5231 37.3507 17.6631C37.6404 17.8031 37.8989 18 38.1109 18.242C38.3229 18.4841 38.4839 18.7663 38.5845 19.0719C38.6851 19.3776 38.7231 19.7003 38.6962 20.0209C38.7214 20.3395 38.682 20.66 38.5804 20.963C38.4788 21.2661 38.3172 21.5455 38.1051 21.7847C37.8931 22.0238 37.635 22.2177 37.3462 22.3548C37.0575 22.4919 36.7441 22.5693 36.4247 22.5825ZM60.8057 11.4988H56.3345V24.0002H58.2002V19.2638H60.8057C61.3335 19.2927 61.8616 19.2138 62.3578 19.0317C62.854 18.8497 63.3079 18.5684 63.6917 18.205C64.0756 17.8417 64.3813 17.4038 64.5902 16.9184C64.7992 16.4329 64.9069 15.9099 64.9069 15.3813C64.9069 14.8528 64.7992 14.3298 64.5902 13.8443C64.3813 13.3588 64.0756 12.921 63.6917 12.5576C63.3079 12.1942 62.854 11.9129 62.3578 11.7309C61.8616 11.5488 61.3335 11.4699 60.8057 11.4988ZM60.8539 17.524H58.2002V13.2387H60.8539C61.1391 13.2328 61.4225 13.2839 61.6876 13.3889C61.9527 13.4939 62.1942 13.6508 62.398 13.8503C62.6017 14.0499 62.7636 14.2881 62.874 14.551C62.9845 14.8139 63.0415 15.0962 63.0415 15.3814C63.0415 15.6665 62.9845 15.9488 62.874 16.2117C62.7636 16.4746 62.6017 16.7128 62.398 16.9124C62.1942 17.1119 61.9527 17.2688 61.6876 17.3738C61.4225 17.4789 61.1391 17.5299 60.8539 17.524ZM72.3856 15.7287C71.7046 15.6889 71.0268 15.8489 70.4354 16.1889C69.844 16.5288 69.3647 17.0341 69.0563 17.6426L70.7129 18.3342C70.8772 18.0322 71.1259 17.7846 71.4287 17.6218C71.7315 17.4589 72.0752 17.3879 72.4177 17.4174C72.8911 17.3712 73.3634 17.5145 73.7312 17.816C74.0991 18.1175 74.3323 18.5525 74.3799 19.0257V19.1544C73.7808 18.8361 73.1123 18.6704 72.4338 18.6719C70.6486 18.6719 68.8312 19.653 68.8312 21.4865C68.8486 21.8729 68.9434 22.2519 69.11 22.601C69.2766 22.9501 69.5116 23.2621 69.8011 23.5186C70.0906 23.7751 70.4287 23.9709 70.7953 24.0942C71.1619 24.2176 71.5496 24.266 71.9352 24.2367C72.4051 24.2644 72.8737 24.1656 73.2923 23.9506C73.711 23.7356 74.0644 23.4123 74.3156 23.0144H74.3799V23.9794H76.1812V19.1866C76.1812 16.9671 74.5246 15.7287 72.3856 15.7287ZM72.1604 22.5801C71.5492 22.5801 70.6968 22.2746 70.6968 21.5186C70.6968 20.5537 71.7583 20.1837 72.6751 20.1837C73.2706 20.1678 73.8594 20.3123 74.3799 20.6019C74.3114 21.1441 74.0489 21.6432 73.6409 22.0069C73.2328 22.3705 72.707 22.5742 72.1604 22.5801ZM82.7432 16.0021L80.6041 21.4221H80.5397L78.3203 16.0021H76.3099L79.6391 23.5773L77.7413 27.7911H79.6873L84.8179 16.0021H82.7432ZM65.9362 24.0002H67.8018V11.4988H65.9362V24.0002Z" fill="white"/>
</g>
</svg>
